<svg width="20" height="21" xmlns="http://www.w3.org/2000/svg" xmlns:xlink="http://www.w3.org/1999/xlink" xml:space="preserve" overflow="hidden"><g transform="translate(-240 -148)"><g><g><g><g><path d="M256.438 159C256.188 159 255.969 159.031 255.75 159.094 255.812 158.812 255.812 158.531 255.812 158.188 255.812 155.094 253.312 152.656 250.281 152.656 247.375 152.656 245 154.906 244.781 157.781 244.562 157.75 244.344 157.75 244.125 157.75 242.031 157.75 240.312 159.469 240.312 161.531 240.312 163.594 242.031 165.344 244.125 165.344L256.5 165.344C258.25 165.344 259.688 163.906 259.688 162.156 259.688 160.406 258.188 159 256.438 159Z" fill="#00B0F0" fill-rule="nonzero" fill-opacity="1"/></g></g></g></g></g></svg>