<svg width="19" height="19" xmlns="http://www.w3.org/2000/svg" xmlns:xlink="http://www.w3.org/1999/xlink" xml:space="preserve" overflow="hidden"><g transform="translate(-341 -197)"><g><g><g><g><path d="M348.428 206.5 348.428 214.734" stroke="#272526" stroke-width="1.0625" stroke-linecap="butt" stroke-linejoin="miter" stroke-miterlimit="10" stroke-opacity="1" fill="none" fill-rule="nonzero"/><path d="M342.266 204.428 348.428 206.5 349.358 206.208" stroke="#272526" stroke-width="1.0625" stroke-linecap="butt" stroke-linejoin="miter" stroke-miterlimit="10" stroke-opacity="1" fill="none" fill-rule="nonzero"/><path d="M348.587 202.303 345.347 203.419 342.266 204.428 342.266 212.663 348.428 214.734 354.591 212.663 354.591 210.245" stroke="#272526" stroke-width="1.0625" stroke-linecap="butt" stroke-linejoin="miter" stroke-miterlimit="10" stroke-opacity="1" fill="none" fill-rule="nonzero"/><path d="M348.667 204.508 345.347 203.419" stroke="#272526" stroke-width="1.0625" stroke-linecap="butt" stroke-linejoin="miter" stroke-miterlimit="10" stroke-opacity="1" fill="none" fill-rule="nonzero"/><path d="M354.112 198.266C351.562 198.266 349.491 200.337 349.491 200.337L349.491 203.498C349.491 203.977 349.544 204.402 349.677 204.853 349.783 205.252 349.942 205.597 350.155 205.916 350.553 206.527 351.005 207.058 351.536 207.509L354.086 209.555 354.617 209.156 356.689 207.509C357.619 206.686 358.761 205.438 358.761 203.472L358.761 200.337C358.734 200.311 356.636 198.266 354.112 198.266Z" stroke="#272526" stroke-width="1.0625" stroke-linecap="butt" stroke-linejoin="miter" stroke-miterlimit="10" stroke-opacity="1" fill="none" fill-rule="nonzero"/><path d="M355.866 201.666 353.422 205.145 352.413 204.136" stroke="#272526" stroke-width="1.0625" stroke-linecap="butt" stroke-linejoin="miter" stroke-miterlimit="10" stroke-opacity="1" fill="none" fill-rule="nonzero"/></g></g></g></g></g></svg>