<svg width="16" height="17" xmlns="http://www.w3.org/2000/svg" xmlns:xlink="http://www.w3.org/1999/xlink" xml:space="preserve" overflow="hidden"><g transform="translate(-736 -140)"><g><g><g><g><path d="M751.75 149C751.75 153.28 748.28 156.75 744 156.75 739.72 156.75 736.25 153.28 736.25 149 736.25 144.72 739.72 141.25 744 141.25 748.28 141.25 751.75 144.72 751.75 149Z" stroke="#FFFFFF" stroke-width="0.250008" stroke-linecap="butt" stroke-linejoin="miter" stroke-miterlimit="10" stroke-opacity="1" fill="#00B050" fill-rule="nonzero" fill-opacity="1"/><path d="M746.208 143.01C745.972 143.01 745.73 143.598 745.838 143.605 745.922 143.61 746.125 143.617 746.22 143.62 746.323 143.622 746.203 144.417 746.24 144.52 746.278 144.622 746.365 144.708 746.465 144.71 746.708 144.71 746.828 144.375 746.922 144.305 747.035 144.225 748.807 143.005 748.68 143.005 748.295 143.005 747.74 143.01 747.487 143.005 747.36 143.005 746.7 143.01 746.208 143.01Z" stroke="#FFFFFF" stroke-width="0.250008" stroke-linecap="butt" stroke-linejoin="miter" stroke-miterlimit="10" stroke-opacity="1" fill="#00B050" fill-rule="nonzero" fill-opacity="1"/><path d="M750.117 144.242C749.565 144.745 748.695 145.587 748.755 145.762 748.885 146.148 748.992 146.355 749.188 146.33 749.338 146.31 749.52 146.208 749.758 146.083 749.99 145.962 750.237 146.023 750.278 146.035 750.597 146.117 750.565 146.36 750.895 146.505 751.17 146.625 751.255 146.617 751.375 146.61" stroke="#FFFFFF" stroke-width="0.250008" stroke-linecap="butt" stroke-linejoin="miter" stroke-miterlimit="10" stroke-opacity="1" fill="#00B050" fill-rule="nonzero" fill-opacity="1"/><path d="M750.695 152.905C750.682 152.875 750.672 152.84 750.665 152.798 750.633 152.61 750.635 152.53 750.617 152.398 750.573 152.057 750.568 151.975 750.537 151.72 750.52 151.562 750.495 151.275 750.422 151.152 750.245 150.845 750.062 150.75 750.078 150.495 750.09 150.275 749.963 150.055 749.797 150.025 749.63 149.995 748.88 149.965 748.758 149.852 748.325 149.452 748.12 149.273 747.953 149.087 747.795 148.91 748.872 146.85 749.08 146.717 749.325 146.565 749.682 146.887 750.165 146.95 750.39 146.977 750.47 147.26 750.685 147.247 750.84 147.238 750.847 147.06 751.045 147.085 751.195 147.105 751.378 147.137 751.52 147.122" stroke="#FFFFFF" stroke-width="0.250008" stroke-linecap="butt" stroke-linejoin="miter" stroke-miterlimit="10" stroke-opacity="1" fill="#00B050" fill-rule="nonzero" fill-opacity="1"/><path d="M739 145.027C739.035 145.215 739.29 145.16 739.435 145.15 739.74 145.128 739.672 144.785 739.787 144.76 739.907 144.732 740.3 144.65 740.39 144.633 740.497 144.615 740.657 145.23 740.69 145.255 740.735 145.288 741.08 145.385 741.122 145.515 741.177 145.68 741.04 145.82 740.992 145.908 740.97 145.952 740.778 146.255 740.77 146.375 740.76 146.557 740.785 147.298 740.943 147.482 741.037 147.595 742.255 148.715 742.398 148.825 742.528 148.925 742.92 149.235 742.975 149.283 743.09 149.383 743.218 149.553 743.185 149.73 743.153 149.89 743.128 150.458 743.125 150.628 743.125 150.73 743.285 150.925 743.42 151.053 743.555 151.18 743.82 151.395 743.9 151.497 743.927 151.535 743.955 151.572 743.977 151.613 744.148 151.923 744.153 152.253 744.153 152.4 744.153 152.768 744.203 154.023 744.203 154.143 744.225 154.47 744.633 154.992 744.845 154.992 745.125 154.992 745.213 154.94 745.22 154.807 745.227 154.688 745.135 154.605 744.992 154.602 744.843 154.6 744.825 154.39 744.812 154.258 744.795 154.065 744.812 153.85 744.838 153.65 744.847 153.56 744.922 153.575 745.052 153.58 745.175 153.585 745.355 153.408 745.552 153.195 745.655 153.085 745.74 152.997 745.807 152.92 745.905 152.812 745.995 152.71 745.99 152.583 745.982 152.405 746.41 152.19 746.557 152.075 746.628 152.02 746.982 150.645 747.005 150.512 747.023 150.408 746.338 150.135 746.062 150.02 745.855 149.935 745.778 150.025 745.597 149.932 745.545 149.905 745.385 149.732 745.282 149.635 745.215 149.57 744.79 149.175 744.705 149.09 744.655 149.04 744.552 148.955 744.403 148.818 744.088 148.53 743.73 149.24 743.59 149.12 743.477 149.025 743.047 148.675 742.963 148.56 742.8 148.337 743.032 148.048 742.925 147.93 742.84 147.837 742.412 148.215 742.355 148.16 742.278 148.083 742.133 147.962 742.143 147.895 742.157 147.795 742.19 147.518 742.218 147.383 742.258 147.178 742.398 147.245 742.578 147.28 742.802 147.322 743.185 147.413 743.29 147.372 743.435 147.32 743.465 147.277 743.62 147.115 743.922 146.8 744.138 146.607 744.458 146.277 744.617 146.115 744.727 146.062 744.857 146.04 745.032 146.008 745.095 146.008 745.28 145.97 745.343 145.958 745.615 145.952 745.755 145.773 745.872 145.62 746.102 145.395 745.932 145.283 745.778 145.178 745.657 145.062 745.513 144.958 745.41 144.883 745.398 144.655 745.477 144.562 745.56 144.467 745.732 144.318 745.785 144.258 745.852 144.182 745.195 143.393 745.028 143.387 744.5 143.372 743.247 143.365 743.04 143.365 742.645 143.365 742.787 143.835 742.557 143.83 742.29 143.825 740.078 143.8 739.893 143.798 739.685 143.798 738.963 144.798 739.003 145.025Z" stroke="#FFFFFF" stroke-width="0.250008" stroke-linecap="butt" stroke-linejoin="miter" stroke-miterlimit="10" stroke-opacity="1" fill="#00B050" fill-rule="nonzero" fill-opacity="1"/><path d="M737.455 144.845C737.455 144.845 737.468 144.83 737.47 144.822 737.503 144.783 737.532 144.74 737.56 144.697 737.57 144.682 737.578 144.667 737.585 144.652 737.588 144.65 737.588 144.648 737.588 144.645" stroke="#FFFFFF" stroke-width="0.250008" stroke-linecap="butt" stroke-linejoin="miter" stroke-miterlimit="10" stroke-opacity="1" fill="#00B050" fill-rule="nonzero" fill-opacity="1"/></g></g></g></g></g></svg>